<?xml version="1.0" encoding="utf-8"?>
<!-- Generator: Adobe Illustrator 16.0.0, SVG Export Plug-In . SVG Version: 6.00 Build 0)  -->
<!DOCTYPE svg PUBLIC "-//W3C//DTD SVG 1.1//EN" "http://www.w3.org/Graphics/SVG/1.1/DTD/svg11.dtd">
<svg version="1.1" id="Ebene_1" xmlns="http://www.w3.org/2000/svg" xmlns:xlink="http://www.w3.org/1999/xlink" x="0px" y="0px"
	 width="500px" height="500px" viewBox="0 0 500 500" enable-background="new 0 0 500 500" xml:space="preserve">
<g>
	<path fill-rule="evenodd" clip-rule="evenodd" fill="#FFFFFF" d="M46.403,194.528c0,15.119,1.163,83.978,0,98.394
		c-1.164,14.422,8.178,24.939,23.62,32.404c15.435,7.463,100.372,48.68,113.256,55.475c12.884,6.797,27.722-1.354,27.722-12.982
		c0-11.621,0-211.683,0-230.287c0-18.603-16.819-26.494-36.384-18.995c-19.56,7.499-79.361,30.537-99.497,39.309
		C54.985,166.611,46.403,179.403,46.403,194.528z"/>
	<path fill="#FFFFFF" d="M251.573,192.212c0,0,2.459-0.149,6.601,0.76c2.056,0.484,4.579,1.14,7.349,2.269
		c2.753,1.152,5.794,2.696,8.927,4.781c3.087,2.131,6.312,4.757,9.284,8.04c2.966,3.271,5.823,7.119,8.029,11.519
		c1.158,2.177,2.269,4.446,3.018,6.865c0.858,2.385,1.751,4.827,2.154,7.36c0.467,2.523,1.198,5.08,1.238,7.648l0.253,3.859
		l0.838,1.941l0.735,0.241v0.121l-0.729,0.749l-0.37,0.414l-0.211,0.83c-0.156,2.246-0.342,4.332-0.578,6.703
		c-0.386,2.766-1.015,5.496-1.562,8.174c-0.714,2.494-1.55,4.895-2.402,7.256c-0.985,2.311-2.05,4.557-3.156,6.711
		c-1.244,2.084-2.483,4.123-3.784,6.023c-1.434,1.832-2.811,3.605-4.239,5.248c-1.543,1.543-2.995,3.064-4.492,4.424
		c-1.59,1.271-3.047,2.539-4.556,3.621c-3.047,2.133-5.967,3.803-8.657,5.059c-2.684,1.26-5.155,2.061-7.17,2.66
		c-4.061,1.174-6.52,1.221-6.52,1.221s1.532-1.9,3.882-5.098c2.315-3.23,5.438-7.781,8.467-13.172
		c1.515-2.701,2.955-5.633,4.349-8.686c0.616-1.537,1.255-3.121,1.9-4.734c0.461-1.676,1.117-3.271,1.636-4.936
		c0.357-1.732,0.893-3.404,1.325-5.113c0.253-1.77,0.604-3.531,0.985-5.26c0.144-1.623,0.253-3.23,0.564-4.826l0.282-6.531
		l0.058-0.829l0.513-0.415c-0.034,1.232,0.467,0.316,0.467,0.582v-0.041v-0.092v-0.173l-0.547-1.376l-0.338-2.754
		c0.023-1.859-0.385-3.611-0.546-5.396c-0.392-3.559-1.087-6.998-2.009-10.286c-1.768-6.606-4.607-12.717-7.735-17.958
		c-1.561-2.615-3.202-4.988-4.728-7.13c-1.578-2.073-2.998-3.991-4.282-5.495c-1.325-1.515-2.366-2.707-3.075-3.519
		C251.98,192.65,251.573,192.212,251.573,192.212z"/>
	<path fill="#FFFFFF" d="M304.013,158.79c0,0,3.628,0.305,9.653,2.321c2.989,1.037,6.635,2.407,10.592,4.481
		c1.941,1.094,4.06,2.217,6.232,3.524c2.102,1.394,4.342,2.868,6.565,4.579c4.389,3.467,8.95,7.631,13.132,12.682
		c4.17,5.04,8.155,10.868,11.225,17.434c1.595,3.26,3.173,6.629,4.193,10.223c1.187,3.542,2.442,7.153,2.983,10.915
		c0.645,3.732,1.659,7.498,1.705,11.312l0.357,5.73l-0.256,2.874L370,245.223v0.178v0.087v0.714v0.65l0.348,1.297
		c-0.229,3.496-0.16,6.818-0.5,10.441c-0.587,3.986-1.271,7.938-2.015,11.83c-1.02,3.682-2.102,7.258-3.265,10.777
		c-1.394,3.443-2.868,6.795-4.383,10.043c-1.739,3.145-3.491,6.197-5.288,9.113c-2.016,2.787-3.968,5.5-5.955,8.051
		c-2.188,2.408-4.236,4.775-6.35,6.934c-2.252,2.027-4.33,4.049-6.467,5.824c-2.235,1.676-4.262,3.363-6.352,4.762
		c-2.143,1.348-4.111,2.662-6.035,3.773c-3.818,2.275-7.366,3.854-10.275,5.074c-5.869,2.402-9.451,3-9.451,3
		s0.645-0.615,1.849-1.779c1.204-1.135,2.845-2.949,4.959-5.104c2.085-2.205,4.446-5.01,7.13-8.121
		c2.615-3.189,5.345-6.91,8.178-10.93c1.331-2.057,2.713-4.193,4.147-6.406c1.285-2.258,2.609-4.596,3.974-6.996
		c1.175-2.449,2.39-4.971,3.628-7.541c0.956-2.689,2.143-5.297,3.156-8.027c0.847-2.771,1.71-5.588,2.586-8.443
		c0.57-2.926,1.244-5.863,1.935-8.777c0.334-2.834,0.64-5.668,1.152-8.49c0.253-3.242,0.311-6.847,0.501-10.263l0.081-1.29
		l-0.116-0.651c0.006-0.166-0.174,1.135-0.174,0.553v-0.074v-0.145l0.14-0.287l-0.038-2.311l-0.148-4.619
		c0.018-3.109-0.532-6.07-0.877-9.076c-0.254-3.029-0.992-5.893-1.608-8.777c-0.49-2.938-1.49-5.656-2.325-8.409
		c-1.717-5.489-4.013-10.626-6.536-15.401c-2.5-4.792-5.362-9.14-8.202-13.114c-2.909-3.911-5.793-7.458-8.541-10.511
		c-2.839-2.932-5.345-5.592-7.568-7.648c-2.252-1.993-4.014-3.686-5.304-4.717C304.704,159.354,304.013,158.79,304.013,158.79z"/>
	<path fill="#FFFFFF" d="M385.855,147.911c0,0,4.043,0.749,10.545,3.818c3.214,1.566,7.153,3.577,11.266,6.502
		c4.153,2.868,8.772,6.37,13.172,10.885c2.287,2.2,4.51,4.643,6.635,7.326c2.269,2.592,4.308,5.495,6.29,8.57
		c2.16,2.995,3.905,6.312,5.673,9.745c1.952,3.363,3.363,7.038,4.821,10.776c1.635,3.704,2.736,7.608,3.778,11.6
		c0.542,1.999,1.083,4.003,1.63,6.019l1.02,6.168c0.674,4.141,1.446,8.311,1.498,12.527l0.334,6.323l0.156,3.168l0.023,0.396
		l-0.017,0.898l-0.029,0.738l-0.052,1.475c-0.207,3.939-0.42,7.873-0.633,11.801c-0.542,4.354-1.273,8.674-1.953,12.936
		c-1.716,8.293-4.043,16.16-7.09,23.562c-3.029,7.371-6.692,14.168-10.661,20.232c-4.003,6.059-8.34,11.352-12.636,15.896
		c-4.331,4.527-8.714,8.213-12.7,11.266c-3.986,3.064-7.747,5.322-10.851,7.084c-6.266,3.479-10.217,4.584-10.217,4.584
		s0.691-0.725,1.981-2.102c1.29-1.354,3.018-3.508,5.247-6.1c2.171-2.66,4.625-6.012,7.378-9.779
		c2.667-3.859,5.449-8.305,8.248-13.189c5.558-9.814,10.816-21.662,14.457-34.787c0.708-3.352,1.877-6.596,2.448-10.057
		c0.524-3.449,1.342-6.957,1.826-10.391c0.357-3.408,0.662-6.83,1.164-10.252c0.144-3.904,0.288-7.832,0.438-11.754l0.075-1.475
		l-0.042-0.738L429,251.402v-0.092c0,1.02,0.078,0.236,0.072,0.438l0.029-0.34l-0.082-2.73l-0.18-5.437
		c-0.006-3.651-0.364-7.211-0.79-10.741l-0.542-5.299l-0.927-5.149c-0.582-3.438-1.212-6.825-2.163-10.05
		c-0.8-3.294-1.669-6.508-2.809-9.561c-0.985-3.122-2.09-6.128-3.386-8.973c-0.61-1.452-1.208-2.88-1.796-4.291
		c-0.697-1.359-1.382-2.701-2.062-4.015c-1.25-2.718-2.724-5.195-4.175-7.573c-2.816-4.821-5.8-9.089-8.634-12.78
		c-2.879-3.64-5.541-6.796-7.879-9.291c-2.378-2.442-4.273-4.429-5.667-5.679C386.604,148.584,385.855,147.911,385.855,147.911z"/>
</g>
</svg>
