<?xml version="1.0" encoding="utf-8"?>
<!-- Generator: Adobe Illustrator 16.0.0, SVG Export Plug-In . SVG Version: 6.00 Build 0)  -->
<!DOCTYPE svg PUBLIC "-//W3C//DTD SVG 1.1//EN" "http://www.w3.org/Graphics/SVG/1.1/DTD/svg11.dtd">
<svg version="1.1" id="Ebene_1" xmlns="http://www.w3.org/2000/svg" xmlns:xlink="http://www.w3.org/1999/xlink" x="0px" y="0px"
	 width="500px" height="500px" viewBox="0 0 500 500" enable-background="new 0 0 500 500" xml:space="preserve">
<g>
	<path fill-rule="evenodd" clip-rule="evenodd" fill="#FFFFFF" d="M106.713,258.401c-13.263-0.056-23.229-9.661-23.291-22.481
		c-0.092-17.234,17.234-34.347,34.495-34.084c13.517,0.208,23.062,9.459,23.211,22.476
		C141.325,241.596,124.284,258.476,106.713,258.401z"/>
	<path fill-rule="evenodd" clip-rule="evenodd" fill="#FFFFFF" d="M276.96,95.978c-13.469,0.104-23.116-9.123-23.295-22.293
		c-0.232-16.842,16.396-33.556,33.748-33.936c13.48-0.3,23.907,9.709,23.878,22.922C311.253,79.618,294.533,95.843,276.96,95.978z"
		/>
	<path fill-rule="evenodd" clip-rule="evenodd" fill="#FFFFFF" d="M174.912,146.263c13.621-0.192,23.101,8.73,23.455,22.077
		c0.465,17.241-16.611,34.287-34.256,34.213c-13.377-0.062-22.982-9.54-22.995-22.685
		C141.096,162.602,157.297,146.499,174.912,146.263z"/>
	<path fill-rule="evenodd" clip-rule="evenodd" fill="#FFFFFF" d="M221.858,149.421c-13.311,0.104-22.854-9.319-22.922-22.63
		c-0.074-17.142,16.365-33.539,33.754-33.659c13.573-0.092,23.172,8.986,23.401,22.143
		C256.401,132.816,239.896,149.287,221.858,149.421z"/>
	<path fill-rule="evenodd" clip-rule="evenodd" fill="#FFFFFF" d="M87.667,430.064l58.605,31.194
		c8.302-12.912,16.591-25.801,24.863-38.677c5.228-8.13,10.751-16.089,15.594-24.44c11.001-19.011,28.132-30.748,47.747-38.486
		c6.596-2.596,15.823-1.739,22.8,0.624c10.084,3.424,16.079,0.429,19.758-8.155c11.736-27.417,23.455-54.857,34.36-82.61
		c7.609-19.348,14.026-39.178,20.724-58.88c4.53-13.323,13.415-19.556,27.589-20.296c19.788-1.021,34.733-11.609,45.857-27.361
		c23.431-33.215,3.44-80.696-36.092-85.998c-16.048-2.149-29.946,3.429-41.528,14.144c-22.403,20.719-44.457,41.83-66.578,62.847
		c-43.585,41.425-87.147,82.881-130.659,124.392c-5.902,5.62-11.835,11.288-17.076,17.503c-7.873,9.331-7.983,14.017-1.861,24.571
		c5.608,9.659,11.264,19.285,16.99,28.873c5.135,8.607,3.813,16.722-1.672,24.551C113.956,392.602,100.811,411.33,87.667,430.064z"
		/>
</g>
</svg>
