<?xml version="1.0" encoding="utf-8"?>
<!-- Generator: Adobe Illustrator 16.0.0, SVG Export Plug-In . SVG Version: 6.00 Build 0)  -->
<!DOCTYPE svg PUBLIC "-//W3C//DTD SVG 1.1//EN" "http://www.w3.org/Graphics/SVG/1.1/DTD/svg11.dtd">
<svg version="1.1" id="Ebene_1" xmlns="http://www.w3.org/2000/svg" xmlns:xlink="http://www.w3.org/1999/xlink" x="0px" y="0px"
	 width="500px" height="500px" viewBox="0 0 500 500" enable-background="new 0 0 500 500" xml:space="preserve">
<g id="kIQtLN_1_">
	<g>
		<path fill-rule="evenodd" clip-rule="evenodd" fill="#FFFFFF" d="M245.548,110.779c-0.781,0.572-1.223,0.897-1.685,1.21
			c-14.853,9.901-29.738,19.771-44.538,29.75c-2.452,1.665-4.963,2.629-7.885,3.018c-16.973,2.213-33.614,5.96-49.813,11.503
			c-13.675,4.697-26.816,10.552-38.604,19.101c-5.686,4.126-10.858,8.796-14.599,14.832c-5.764,9.304-5.387,18.243,0.995,27.143
			c5.588,7.808,13.037,13.454,21.137,18.347c14.072,8.482,29.34,14.091,45.117,18.437c13.72,3.786,27.675,6.362,41.799,8.055
			c18.905,2.275,37.862,2.979,56.872,2.068c28.163-1.341,55.806-5.687,82.505-15.055c13.063-4.58,25.594-10.291,36.842-18.501
			c5.796-4.243,11.021-9.057,14.826-15.25c5.549-9.017,4.925-17.787-0.963-26.374c-3.462-5.049-7.911-9.133-12.692-12.894
			c-0.924-0.729-1.555-0.325-2.336,0.063c-33.562,16.786-67.126,33.569-100.694,50.355c-13.389,6.688-26.777,13.388-40.166,20.089
			c-0.546,0.273-1.106,0.521-1.834,0.859c-4.58-9.161-9.14-18.269-13.767-27.507c71.862-35.938,143.659-71.836,215.637-107.817
			c4.606,9.186,9.16,18.287,13.791,27.537c-13.856,6.923-27.635,13.819-41.557,20.793c1.795,2.055,3.577,3.995,5.243,6.023
			c6.7,8.146,11.463,17.254,13.232,27.727c0.52,3.071,0.755,6.221,0.755,9.343c0.052,45.905,0.038,91.809,0.025,137.699
			c0,12.009-3.902,22.743-10.747,32.477c-8.197,11.645-19.062,20.31-31.155,27.531c-17.722,10.579-36.92,17.461-56.841,22.523
			c-15.184,3.851-30.589,6.44-46.177,8.079c-15.796,1.666-31.63,2.355-47.51,2.018c-30.85-0.651-61.225-4.58-90.839-13.519
			c-17.552-5.296-34.376-12.271-49.749-22.406c-9.979-6.571-18.912-14.3-25.847-24.136c-6.909-9.824-10.812-20.662-10.812-32.763
			c0-45.748,0.02-91.495-0.006-137.256c-0.006-12.726,4.099-24.032,11.548-34.221c8.184-11.177,18.775-19.62,30.537-26.66
			c18.157-10.878,37.863-17.851,58.33-22.88c14.417-3.539,29.029-5.934,43.796-7.455c15.132-1.548,30.291-2.291,45.507-1.991
			C243.87,110.675,244.521,110.727,245.548,110.779z M176.822,290.589c0,35.743,0,71.393,0,107.187
			c41.078,7.287,82.075,7.3,123.049,0c0-35.872,0-71.522,0-107.187C258.839,297.016,217.913,297.029,176.822,290.589z
			 M145.888,390.386c0-35.872,0-71.198,0-106.589c-21.931-6.193-42.84-14.599-61.491-28.261c-0.04,0.481-0.072,0.677-0.072,0.872
			c0,28.3,0,56.585,0.006,84.873c0,3.721,0.93,7.208,2.589,10.513c3.064,6.089,7.683,10.864,12.875,15.133
			c7.625,6.258,16.121,11.138,25.132,15.066C131.726,384.961,138.693,387.523,145.888,390.386z M330.812,389.995
			c0.402-0.117,0.645-0.182,0.885-0.26c10.324-3.292,20.35-7.339,29.848-12.583c8.718-4.813,16.876-10.368,23.382-18.06
			c4.834-5.698,7.565-12.087,7.52-19.776c-0.143-27.271-0.052-54.53-0.052-81.789c0-0.599,0-1.185,0-2.082
			c-9.42,6.987-19.309,12.452-29.678,17.07c-10.345,4.594-21.04,8.237-31.904,11.294
			C330.812,319.266,330.812,354.526,330.812,389.995z"/>
		<path fill-rule="evenodd" clip-rule="evenodd" fill="#FFFFFF" d="M353.034,66.956c5.758,8.627,11.386,17.072,17.098,25.62
			c-14.286,9.524-28.481,18.997-42.833,28.572c7.246,2.252,14.325,4.457,21.396,6.656c0.007,0.144,0.007,0.273,0.007,0.416
			c-0.455,0.26-0.91,0.533-1.38,0.78c-12.659,6.323-25.301,12.66-37.979,18.932c-0.872,0.43-2.069,0.547-3.045,0.391
			c-4.501-0.754-8.978-1.639-13.453-2.537c-1.38-0.273-2.511-0.053-3.735,0.768c-34.075,22.77-68.185,45.487-102.287,68.23
			c-0.463,0.3-0.937,0.599-1.549,0.989c-5.692-8.548-11.353-17.019-17.077-25.594C229.818,149.104,291.348,108.072,353.034,66.956z"
			/>
	</g>
</g>
</svg>
